<svg xmlns="http://www.w3.org/2000/svg" width="52" height="46.233" viewBox="0 0 52 46.233">
<path id="logo" d="M49.313.876A1.4,1.4,0,0,0,46.758.768a15.483,15.483,0,0,1-13.534,7.9H26A17.339,17.339,0,0,0,8.666,26,17.852,17.852,0,0,0,8.8,27.854c5.76-4.126,14.076-7.629,25.867-7.629a1.445,1.445,0,0,1,0,2.889c-22.7,0-32.323,13.913-34.453,19.141A2.893,2.893,0,0,0,5.57,44.448a23.753,23.753,0,0,1,6.492-8.18,17.3,17.3,0,0,0,15.791,6.97C42.027,42.209,52,29.5,52,13.932A32.832,32.832,0,0,0,49.313.876Z" transform="translate(-0.004 0.002)" fill="#00af8a"/>
</svg>