<svg xmlns="http://www.w3.org/2000/svg" width="24.078" height="24.078" viewBox="0 0 24.078 24.078">
  <path id="continue-submit-icon" d="M12.6,24.641A12.039,12.039,0,1,0,.563,12.6,12.037,12.037,0,0,0,12.6,24.641ZM11.2,17.67l3.665-3.515H6A1.162,1.162,0,0,1,4.834,12.99v-.777A1.162,1.162,0,0,1,6,11.048h8.864L11.2,7.534a1.166,1.166,0,0,1-.019-1.665l.534-.529a1.16,1.16,0,0,1,1.646,0L19.8,11.776a1.16,1.16,0,0,1,0,1.646l-6.442,6.442a1.16,1.16,0,0,1-1.646,0l-.534-.529A1.166,1.166,0,0,1,11.2,17.67Z" transform="translate(-0.563 -0.563)" fill="#00af8a"/>
</svg>
