<svg xmlns="http://www.w3.org/2000/svg" width="17.369" height="19.85" viewBox="0 0 17.369 19.85"><path d="M1.241,17.989A1.861,1.861,0,0,0,3.1,19.85H14.267a1.861,1.861,0,0,0,1.861-1.861V4.962H1.241ZM11.786,8.064a.62.62,0,1,1,1.241,0v8.684a.62.62,0,1,1-1.241,0Zm-3.722,0a.62.62,0,1,1,1.241,0v8.684a.62.62,0,1,1-1.241,0Zm-3.722,0a.62.62,0,1,1,1.241,0v8.684a.62.62,0,1,1-1.241,0ZM16.748,1.241H12.1L11.732.516A.93.93,0,0,0,10.9,0H6.467a.92.92,0,0,0-.83.516l-.364.725H.62a.62.62,0,0,0-.62.62V3.1a.62.62,0,0,0,.62.62H16.748a.62.62,0,0,0,.62-.62V1.861A.62.62,0,0,0,16.748,1.241Z" fill="#787878"/></svg>