<svg xmlns="http://www.w3.org/2000/svg" width="18.196" height="16.171" viewBox="0 0 18.196 16.171">
  <path id="Icon_awesome-edit" data-name="Icon awesome-edit" d="M12.718,2.632l2.849,2.849a.309.309,0,0,1,0,.436l-6.9,6.9-2.932.325a.614.614,0,0,1-.679-.679l.325-2.932,6.9-6.9A.309.309,0,0,1,12.718,2.632Zm5.118-.723L16.294.367a1.236,1.236,0,0,0-1.744,0L13.432,1.485a.309.309,0,0,0,0,.436l2.849,2.849a.309.309,0,0,0,.436,0l1.118-1.118a1.236,1.236,0,0,0,0-1.744Zm-5.705,9.032v3.216H2.022V4.047h7.26a.388.388,0,0,0,.269-.111l1.264-1.264a.379.379,0,0,0-.269-.648H1.516A1.517,1.517,0,0,0,0,3.542v11.12a1.517,1.517,0,0,0,1.516,1.516h11.12a1.517,1.517,0,0,0,1.516-1.516V9.677a.38.38,0,0,0-.648-.269l-1.264,1.264A.388.388,0,0,0,12.131,10.941Z" transform="translate(0 -0.007)" fill="#8a8a8a"/>
</svg>
