<svg xmlns="http://www.w3.org/2000/svg" width="27.088" height="24.078" viewBox="0 0 27.088 24.078">
  <path id="with-signature-icon" d="M10.26,19.946a.521.521,0,0,0-.478-.307.513.513,0,0,0-.471.291l-.361.721a.752.752,0,0,1-1.386-.1L6.772,18.18l-.5,1.5a2.03,2.03,0,0,1-1.928,1.389H3.762a.752.752,0,0,1,0-1.5h.583a.527.527,0,0,0,.5-.36l.855-2.57a1.129,1.129,0,0,1,2.142,0L8.5,18.592a2.11,2.11,0,0,1,3.1.666.534.534,0,0,0,.44.294V15.69l6.02-5.977V7.524h-6.4A1.132,1.132,0,0,1,10.534,6.4V0H1.129A1.126,1.126,0,0,0,0,1.129V22.949a1.126,1.126,0,0,0,1.129,1.129h15.8a1.126,1.126,0,0,0,1.129-1.129V21.068l-6.02-.005A2.019,2.019,0,0,1,10.26,19.946Zm7.8-14.214a1.125,1.125,0,0,0-.329-.795L13.125.329a1.128,1.128,0,0,0-.8-.329h-.287V6.02h6.02ZM13.544,16.317v3.247h3.244l7.6-7.655L21.2,8.716ZM26.737,7.869l-1.5-1.5a1.2,1.2,0,0,0-1.693,0L22.263,7.652l3.192,3.192,1.282-1.282A1.2,1.2,0,0,0,26.737,7.869Z" fill="#00af8a"/>
</svg>
