<svg xmlns="http://www.w3.org/2000/svg" width="23.822" height="21.171" viewBox="0 0 23.822 21.171"><path d="M16.651,3.444l3.73,3.73a.4.4,0,0,1,0,.571l-9.033,9.033L7.511,17.2a.8.8,0,0,1-.889-.889l.426-3.838L16.08,3.444A.4.4,0,0,1,16.651,3.444Zm6.7-.947L21.332.479a1.618,1.618,0,0,0-2.283,0L17.585,1.943a.4.4,0,0,0,0,.571l3.73,3.73a.4.4,0,0,0,.571,0L23.351,4.78a1.618,1.618,0,0,0,0-2.283ZM15.882,14.321v4.21H2.647V5.3h9.5a.509.509,0,0,0,.352-.145L14.157,3.5a.5.5,0,0,0-.352-.848H1.985A1.986,1.986,0,0,0,0,4.635V19.193a1.986,1.986,0,0,0,1.985,1.985H16.543a1.986,1.986,0,0,0,1.985-1.985V12.667a.5.5,0,0,0-.848-.352L16.026,13.97A.509.509,0,0,0,15.882,14.321Z" transform="translate(0 -0.007)" fill="#00af8a"/></svg>